<svg width="96" height="45" viewBox="0 0 96 45" fill="none" xmlns="http://www.w3.org/2000/svg">
<path d="M4.65598 18.7441C4.65598 18.7441 1.57287 14.5238 6.70295 10.3287C11.0749 6.74019 19.9957 1.91336 25.6059 5.19864C27.0464 6.05786 28.1078 7.47306 27.4002 9.84856C25.707 15.4588 18.3278 17.8596 14.3096 18.1376C14.1327 18.1376 13.9558 18.1628 13.7789 18.1628C14.9161 14.7765 16.2302 11.6681 16.8873 10.4551C17.7213 8.86298 18.5805 7.54887 19.465 6.68965C20.4506 5.72933 20.7791 4.97119 20.1473 4.84484C16.2302 3.93507 12.0857 10.5056 10.0893 17.1014C9.63443 16.6718 9.4828 16.318 9.4828 16.318C9.4828 16.318 9.25536 15.7115 8.92683 16.2169C8.74993 16.4697 8.74993 17.8596 9.53334 19.1484C8.32032 24.3796 8.67412 29.1306 11.8078 29.4591C11.9088 29.4844 12.667 29.5602 12.389 29.2064C11.454 27.9428 11.8836 24.7586 12.8186 21.3217C13.324 21.4481 13.9053 21.4986 14.5371 21.4986C18.7068 21.4986 24.9741 22.9897 21.7394 28.423C19.8188 31.6072 14.4613 34.008 10.1399 33.3762C4.02419 32.4664 5.99536 28.8526 6.14699 28.7515C6.29861 28.6252 5.74264 28.2714 4.8076 29.2064C3.87256 30.1414 2.15411 36.2824 10.0893 36.8889C18.0498 37.4954 27.0716 31.8852 27.8045 26.3255C28.2847 22.8128 24.9236 20.5131 21.5372 19.8055C25.707 17.8848 29.6493 14.3974 30.6096 9.62112C31.5952 4.84484 29.2955 1.83755 25.4037 0.624525C21.4109 -0.613769 17.2411 0.169642 13.3493 1.40794C5.99536 3.80871 -0.221392 8.88825 0.00605001 14.0183C0.208221 18.5166 5.36357 19.578 4.65598 18.7441Z" fill="#3DB674"/>
<path d="M29.4712 15.7621C29.1174 16.6213 28.8142 17.531 28.6373 18.3903C27.9297 21.8524 30.7348 24.4807 33.5905 23.5456C34.475 23.2424 35.4858 22.5348 36.4461 21.7008C36.9768 23.2676 38.2909 24.0763 40.0852 23.4951C42.9409 22.56 45.0889 17.7332 45.0889 17.7332L44.4824 16.7982C44.4824 16.7982 42.4354 20.791 40.6917 20.7658C39.7061 20.7658 39.883 18.1628 40.9444 15.0292C41.2224 14.2458 41.5509 13.4371 41.9047 12.6031C42.5113 11.2132 43.0672 11.3901 42.7134 11.011C41.4246 9.69693 39.2765 10.6067 38.9985 10.9858C38.8469 10.7836 37.9624 10.354 37.8361 10.3287C34.3233 9.39368 30.9622 12.2493 29.4712 15.7621ZM33.919 20.8669C32.3774 21.069 32.0489 20.0835 32.2511 18.8452C32.5291 17.2025 33.5147 15.0545 34.4497 13.7151C35.3847 12.3504 36.2692 11.8197 36.7999 11.8955C37.3054 11.9714 37.7097 12.679 37.2548 13.7151C37.0021 14.3469 36.6736 14.7007 36.244 14.9281C34.7782 15.661 36.0418 16.1917 37.0526 15.8126C36.4209 18.4155 35.9407 20.6141 33.919 20.8669Z" fill="#3DB674"/>
<path d="M49.0755 14.3721C49.4293 13.7403 50.8445 11.289 50.8445 10.632C50.8192 9.67166 45.7397 10.3793 46.5989 11.1879C46.8263 11.4407 46.7505 11.7186 46.5231 12.2493C45.5375 14.3974 40.4327 22.9391 46.0429 23.672C46.144 23.672 46.8769 23.7731 46.6747 23.4193C45.4111 21.2965 48.0899 15.8631 50.4401 15.2819C49.3787 17.6069 48.1152 23.2676 51.7795 23.672C51.8553 23.672 52.6135 23.7731 52.386 23.4193C51.2741 21.5492 53.776 15.2819 55.9998 15.2819C55.5449 16.2927 55.1659 17.3541 54.9384 18.3903C54.2561 21.8524 55.8229 24.4301 58.6786 23.4951C61.5343 22.56 63.6823 17.7332 63.6823 17.7332L63.0758 16.7982C63.0758 16.7982 61.0288 20.6394 59.2851 20.7658C57.7435 20.9174 58.4511 16.7476 61.7364 12.1735C63 10.4045 62.1155 10.0002 60.8772 10.1265C57.9963 10.3793 55.7218 13.5382 55.5197 13.1844C56.0756 12.3504 56.2778 12.0724 56.8843 11.1879C57.6172 10.1518 56.4042 10.0507 55.0901 10.2276C52.664 10.5562 50.8192 12.7042 49.0755 14.3721Z" fill="#3DB674"/>
<path d="M67.0665 14.3721C67.4203 13.7403 68.8355 11.289 68.8355 10.632C68.8102 9.67166 63.7307 10.3793 64.5899 11.1879C64.8174 11.4407 64.7415 11.7186 64.5141 12.2493C63.5285 14.3974 58.4237 22.9391 64.0339 23.672C64.135 23.672 64.8679 23.7731 64.6657 23.4193C63.4022 21.2965 66.0809 15.8631 68.4312 15.2819C67.3698 17.6069 66.1062 23.2676 69.7705 23.672C69.8464 23.672 70.6045 23.7731 70.377 23.4193C69.2651 21.5492 71.767 15.2819 73.9908 15.2819C73.536 16.2927 73.1569 17.3541 72.9295 18.3903C72.2471 21.8524 73.8139 24.4301 76.6696 23.4951C79.5253 22.56 81.6733 17.7332 81.6733 17.7332L81.0668 16.7982C81.0668 16.7982 79.0198 20.6394 77.2761 20.7658C75.7346 20.9174 76.4422 16.7476 79.7274 12.1735C80.991 10.4045 80.1065 10.0002 78.8682 10.1265C75.9873 10.3793 73.7129 13.5382 73.5107 13.1844C74.0667 12.3504 74.2688 12.0724 74.8753 11.1879C75.6082 10.1518 74.3952 10.0507 73.0811 10.2276C70.655 10.5562 68.8102 12.7042 67.0665 14.3721Z" fill="#3DB674"/>
<path d="M83.1622 23.5456C80.9383 26.1991 82.3282 29.636 84.9312 29.6107C88.3175 29.5855 89.202 24.3543 90.1623 19.3759C91.4006 18.0365 94.3826 16.4444 96 15.6357L95.343 14.7512C95.343 14.7512 93.1444 15.4588 90.971 16.5455C91.3501 15.2061 91.8555 13.892 92.4115 12.6031C93.018 11.2132 93.574 11.3901 93.2202 11.011C92.6642 10.4551 91.9566 10.3034 91.3248 10.3287C89.0251 10.4298 88.1659 13.2602 87.6352 15.5093C87.2056 17.4047 86.2453 20.5889 83.9203 20.7658C82.3535 20.9174 83.0864 16.7476 86.3464 12.1735C87.155 11.0616 87.6857 10.4298 87.0287 10.3287C84.0972 9.77275 82.5304 11.567 81.0141 14.4732C80.3823 15.7115 79.8516 17.0762 79.5736 18.3903C78.8913 21.8019 80.4076 24.329 83.1622 23.5456ZM86.498 22.4084C86.0684 24.7334 85.5882 26.7804 85.1839 26.8056C84.6279 26.8309 84.4005 26.4771 84.4005 25.9464C84.451 24.5312 85.6135 23.3687 86.498 22.4084Z" fill="#3DB674"/>
<path d="M2.89994 36.4837C2.89994 36.4837 2.52087 40.7798 18.3407 40.6787C34.1353 40.5776 82.0245 38.5054 84.5516 39.8195C87.0535 41.1336 85.8404 43.5596 85.8404 43.5596C85.8404 43.5596 85.6636 44.0398 86.0932 44.1662C86.4975 44.2925 90.7936 39.9711 89.0499 36.1299C88.0643 33.9313 85.335 33.5522 80.7356 33.8554C62.6666 35.0685 21.2217 40.8809 7.42351 37.7472C4.44149 37.0649 3.91079 36.5342 3.63281 36.1299C3.35482 35.7255 2.8494 36.1046 2.89994 36.4837Z" fill="#3DB674"/>
</svg>
