<svg width="23" height="18" viewBox="0 0 23 18" fill="none" xmlns="http://www.w3.org/2000/svg">
<path d="M5.8906 2.60737H17.9299M3.96516 2.60737C3.96516 2.60737 2.73796 2.41694 2.08204 2.71318C1.42612 3.00941 1.25684 4.06734 1.25684 4.06734C1.25684 4.06734 1.25685 15.3026 1.25685 15.5988C1.25685 15.8951 1.4261 16.2759 1.89161 16.6568C2.35712 17.0376 3.01302 16.9742 3.01302 16.9742H21.0402C21.0402 16.9742 21.6327 16.8895 22.0559 16.4663C22.479 16.0432 22.4791 15.5988 22.4791 15.5988L22.5848 4.06734C22.5848 4.06734 22.5002 3.34793 21.9289 2.9036C21.3576 2.45926 19.9612 2.60737 19.9612 2.60737" stroke="#797979" stroke-width="0.8"/>
<path d="M9.25998 6.00128L16.4999 6.00128V7.21633H7.05453V6.00128C7.05453 6.00128 8.99447 6.00128 8.29251 6.00128" stroke="#797979" stroke-width="0.8"/>
<path d="M17.9578 2.58569C17.9578 2.58569 17.79 0.550892 18.9438 0.466998C20.0975 0.383103 19.9192 2.58569 19.9192 2.58569C19.9192 2.58569 19.9716 4.38983 18.9438 4.35828C17.9159 4.32674 17.9578 2.58569 17.9578 2.58569Z" stroke="#797979" stroke-width="0.8"/>
<path d="M3.9719 2.58569C3.9719 2.58569 3.80406 0.550892 4.95783 0.466998C6.1116 0.383103 5.93326 2.58569 5.93326 2.58569C5.93326 2.58569 5.98572 4.38983 4.95783 4.35828C3.92994 4.32674 3.9719 2.58569 3.9719 2.58569Z" stroke="#797979" stroke-width="0.8"/>
<rect x="3.60477" y="8.96231" width="2.58643" height="2.5692" rx="0.5" fill="#797979"/>
<rect x="4.53589" y="9.85895" width="0.764427" height="0.764429" fill="white"/>
<rect x="7.05453" y="8.96231" width="2.58643" height="2.5692" rx="0.5" fill="#797979"/>
<rect x="7.98566" y="9.85895" width="0.764427" height="0.764429" fill="white"/>
<rect x="17.6202" y="8.93253" width="2.58643" height="2.5692" rx="0.5" fill="#797979"/>
<rect x="18.5513" y="9.82916" width="0.764427" height="0.764429" fill="white"/>
<rect x="3.60477" y="12.5055" width="2.58643" height="2.5692" rx="0.5" fill="#797979"/>
<rect x="4.53589" y="13.4021" width="0.764427" height="0.764429" fill="white"/>
<rect x="7.14786" y="12.4607" width="2.58643" height="2.5692" rx="0.5" fill="#797979"/>
<rect x="8.07898" y="13.3573" width="0.764427" height="0.764429" fill="white"/>
<rect x="10.6276" y="12.4607" width="2.58643" height="2.5692" rx="0.5" fill="#797979"/>
<rect x="11.5587" y="13.3573" width="0.764427" height="0.764429" fill="white"/>
<rect x="14.1551" y="12.4607" width="2.58643" height="2.5692" rx="0.5" fill="#797979"/>
<rect x="15.0862" y="13.3573" width="0.764427" height="0.764429" fill="white"/>
<rect x="17.6424" y="12.4607" width="2.58643" height="2.5692" rx="0.5" fill="#797979"/>
<rect x="18.5735" y="13.3573" width="0.764427" height="0.764429" fill="white"/>
<rect x="10.6784" y="9" width="2.58643" height="2.5692" rx="0.5" fill="#797979"/>
<rect x="11.6095" y="9.89664" width="0.764427" height="0.764429" fill="white"/>
<rect x="14.1349" y="8.93253" width="2.58643" height="2.5692" rx="0.5" fill="#797979"/>
<rect x="15.0661" y="9.82916" width="0.764427" height="0.764429" fill="white"/>
</svg>
